<svg width="32" height="23" viewBox="0 0 32 23" fill="none" xmlns="http://www.w3.org/2000/svg">
<path d="M27.3101 9.17084L10.4985 0.813471C9.7903 0.461351 8.82633 0.616251 7.98294 1.21752C7.13953 1.81888 6.58666 2.74545 6.54019 3.6356L6.17306 10.6659H14.5792C14.966 10.6659 15.1825 10.9934 15.0628 11.3973C14.9431 11.8012 14.5324 12.1287 14.1455 12.1287H5.73943L1.93854 19.159C1.45725 20.0492 1.46074 20.9757 1.94769 21.5771C2.4356 22.1795 3.30839 22.3325 4.22378 21.9811L25.9901 13.6238C26.9811 13.2433 27.7795 12.3901 28.0738 11.3973C28.3681 10.4045 28.0755 9.55129 27.3101 9.17084Z" fill="white"/>
</svg>
